<svg xmlns="http://www.w3.org/2000/svg">   
   <symbol id="hour" viewBox="0 0 35 35">
        <path d="M17.5 0A17.51 17.51 0 1 1 5.13 5.13 17.42 17.42 0 0 1 17.5 0zm-1.2 5.9v11.6a1.21 1.21 0 0 0 .78 1.13l7.34 3.5a1.2 1.2 0 0 0 1-2.16l-6.72-3.23V5.9a1.2 1.2 0 0 0-2.4 0zm11.88.93A15.11 15.11 0 1 0 32.6 17.5a15.08 15.08 0 0 0-4.42-10.68z" fill="#02baa8" fill-rule="evenodd"/>
    </symbol> 
   <symbol id="location" viewBox="0 0 27.42 35">
        <path d="M14.3 0h-1.17C3.4.4-2.73 10.7 1.2 19.62a30.91 30.91 0 0 0 2.46 4.44A54 54 0 0 0 13.71 35a53.59 53.59 0 0 0 10-10.94 29.07 29.07 0 0 0 2.46-4.44C30.15 10.7 24 .4 14.3 0zm-.58 19.72a5.56 5.56 0 1 1 5.55-5.55 5.55 5.55 0 0 1-5.55 5.56z" fill="#02baa8"/>
    </symbol> 
   <symbol id="play" viewBox="0 0 16 17.3">
   <path d="M16 8.65L0 0v17.3l16-8.65z" fill="#02baa8"/>
    </symbol> 
   <symbol id="start" viewBox="0 0 115.18 18.56">
<path d="M9.76 0l3 6.1 6.75.98-4.88 4.76 1.15 6.7-6.03-3.17-6.03 3.17 1.15-6.7L0 7.1l6.74-.98L9.76 0zm23.9 0l3.02 6.1 6.74.98-4.88 4.76 1.15 6.7-6.03-3.17-6.03 3.17 1.15-6.7-4.9-4.74 6.75-.98 3-6.1zM57.6 0l3 6.1 6.75.98-4.88 4.76 1.15 6.7-6.03-3.17-6.03 3.17 1.15-6.7-4.88-4.76 6.74-.98L57.6 0zm23.9 0l3.02 6.1 6.74.98-4.88 4.76 1.15 6.7-6.03-3.17-6.03 3.17 1.15-6.7-4.87-4.76 6.74-.98 3-6.1zm23.92 0l3 6.1 6.75.98-4.88 4.76 1.15 6.7-6.03-3.17-6.03 3.17 1.15-6.7-4.88-4.76 6.74-.98L105.4 0z"/>
    </symbol> 
   <symbol id="phone" viewBox="0 0 91.2 91.2">
         <circle cx="45.6" cy="45.6" r="45.6" fill="#02baa8"/><path d="M65.83 59.4a11.08 11.08 0 0 1-1.55 4 8.43 8.43 0 0 1-3 2.77 11.65 11.65 0 0 1-5.69 1.44 15.7 15.7 0 0 1-4.81-.81 37.19 37.19 0 0 1-9.1-4.79 32.36 32.36 0 0 1-6.63-6.14 32.28 32.28 0 0 1-5.22-7.39 37 37 0 0 1-3.58-9.62 12.85 12.85 0 0 1 2-10.32 8.34 8.34 0 0 1 3.13-2.64 11.17 11.17 0 0 1 4.18-1 2.91 2.91 0 0 1 3 1.81l1.84 3.9 1.34 2.8a13.36 13.36 0 0 1 .7 1.8 2.53 2.53 0 0 1-1 3l-3.84 3.1-.2.18a2.43 2.43 0 0 0 .14.39 26.37 26.37 0 0 0 4.66 7.75h0a26.3 26.3 0 0 0 7.08 5.65l.36.2.2-.18 3.6-3.4a2.52 2.52 0 0 1 3.05-.6 13.63 13.63 0 0 1 1.7.94l6.2 4.02a2.92 2.92 0 0 1 1.45 3.16z" fill="#fff"/>
     </symbol> 
   <symbol id="mail" viewBox="0 0 91.2 91.2">
     <circle cx="45.6" cy="45.6" r="45.6" fill="#02baa8"/><path d="M68 33.9v24.7L55.68 46.25zM46.83 55.1a1.28 1.28 0 0 1-1.8 0l-7-7-12.3 12.26h40.38L53.84 48.08zm-.57-3.1l19.92-19.92h-40.5L45.6 52a.48.48 0 0 0 .67 0zM23.84 33.9v24.7l12.34-12.34z" fill="#fff"/>
    </symbol>  
</svg>