<svg xmlns="http://www.w3.org/2000/svg" viewBox="0 0 15.15 15.15" fill="#02baa8" xmlns:v="https://vecta.io/nano"><path d="M7.57 1.36h3.06a4.23 4.23 0 0 1 1.37.31 2.31 2.31 0 0 1 .87.57 2.24 2.24 0 0 1 .57.87 4.37 4.37 0 0 1 .26 1.4v6.12a4.52 4.52 0 0 1-.22 1.37 2.31 2.31 0 0 1-.57.87 2.44 2.44 0 0 1-.87.57 4.52 4.52 0 0 1-1.41.26H4.5a4.37 4.37 0 0 1-1.4-.26 2.35 2.35 0 0 1-.87-.57 2.31 2.31 0 0 1-.57-.87 4.23 4.23 0 0 1-.26-1.41V4.47a4.1 4.1 0 0 1 .26-1.4 2.24 2.24 0 0 1 .57-.87 2.24 2.24 0 0 1 .87-.57 4.1 4.1 0 0 1 1.4-.26h3.06m0-1.37l-3.1.05A5.31 5.31 0 0 0 2.61.4a3.64 3.64 0 0 0-1.34.87A3.64 3.64 0 0 0 .4 2.61a5.31 5.31 0 0 0-.35 1.84v6.25a5.3 5.3 0 0 0 .35 1.83 3.82 3.82 0 0 0 2.21 2.22 5.56 5.56 0 0 0 1.84.35l3.12.05 3.13-.05a5.54 5.54 0 0 0 1.83-.35 3.87 3.87 0 0 0 2.22-2.22 5.54 5.54 0 0 0 .35-1.83l.05-3.13-.05-3.12a5.56 5.56 0 0 0-.35-1.84 3.67 3.67 0 0 0-.88-1.34A3.64 3.64 0 0 0 12.53.4 5.3 5.3 0 0 0 10.7.05L7.57 0m0 3.68a3.89 3.89 0 1 0 3.89 3.89 3.9 3.9 0 0 0-3.89-3.89m0 6.42a2.53 2.53 0 1 1 2.53-2.53 2.52 2.52 0 0 1-2.53 2.53m4.95-6.57a.91.91 0 1 1-.9-.91.9.9 0 0 1 .9.91"/></svg>