<svg xmlns="http://www.w3.org/2000/svg" viewBox="0 0 32.71 32.96" fill="none" stroke="#fff" xmlns:v="https://vecta.io/nano"><g stroke-linecap="round" stroke-linejoin="round" stroke-width="2"><path d="M18.87 32H4.25A3.15 3.15 0 0 1 1 28.91V6.16A3.16 3.16 0 0 1 4.25 3.1h4.1m16 0h4.1a3.16 3.16 0 0 1 3.25 3.06V19.9m-8.4 4.15h4M8.36 3.1h16"/><path d="M18.87 32a4.29 4.29 0 0 0 4.42-4.15v-3.8h4a4.29 4.29 0 0 0 4.42-4.15"/><path d="M31.7 19.9C31.7 26.56 26 32 18.87 32M1 11.06h30.7M8.36 5.03V1m16 4.03V1"/></g><path d="M10.22 18.84a1 1 0 0 1-1.06 1h-3a1 1 0 0 1-1.07-1V16a1 1 0 0 1 1.07-1h3a1 1 0 0 1 1.06 1zm8.68 0a1 1 0 0 1-1.06 1h-3a1 1 0 0 1-1.06-1V16a1 1 0 0 1 1.06-1h3a1 1 0 0 1 1.06 1zM10.22 27a1 1 0 0 1-1.06 1h-3a1 1 0 0 1-1.06-1v-2.8a1 1 0 0 1 1.07-1h3a1 1 0 0 1 1.06 1zm8.68 0a1 1 0 0 1-1.06 1h-3a1 1 0 0 1-1.06-1v-2.8a1 1 0 0 1 1.06-1h3a1 1 0 0 1 1.06 1zm8.7-8.16a1 1 0 0 1-1.07 1h-3a1 1 0 0 1-1.06-1V16a1 1 0 0 1 1.06-1h3a1 1 0 0 1 1.07 1z" stroke-linejoin="round" stroke-width="2"/></svg>