<svg xmlns="http://www.w3.org/2000/svg" viewBox="0 0 17.3 17.34" fill="#02baa8" xmlns:v="https://vecta.io/nano"><path d="M11.82 9.72a1.45 1.45 0 0 0-1.23-.28c-.32.13-.52.63-.72.9a.31.31 0 0 1-.4.08A5.49 5.49 0 0 1 6.7 8a.35.35 0 0 1 0-.47 1.81 1.81 0 0 0 .5-.81 1.73 1.73 0 0 0-.22-1 2.3 2.3 0 0 0-.68-1.01 1 1 0 0 0-1.06.16 2.2 2.2 0 0 0-.75 1.71 3.19 3.19 0 0 0 .07.54 4.28 4.28 0 0 0 .52 1.2l.54.83A8.5 8.5 0 0 0 8 11.34a7.34 7.34 0 0 0 1.47.7 3.36 3.36 0 0 0 1.71.27 2.07 2.07 0 0 0 1.55-1.16 1 1 0 0 0 .08-.59c-.1-.4-.66-.64-1-.84z" fill-rule="evenodd"/><path d="M0 17.34l1.24-4.64a8.59 8.59 0 1 1 3.42 3.39zm4.9-3l.3.18a7 7 0 1 0-2.39-2.36l.18.3-.7 2.6z"/></svg>